<?xml version="1.0"?>
<svg version="1.1" xmlns="http://www.w3.org/2000/svg" width="320" height="100" style=""><path fill="#1d83cc" d="M16.8603515625,38.6474609375q-0.0732421875-0.8935546875,0.1171875-1.552734375t0.76171875-1.083984375t1.8310546875-0.4248046875l4.716796875,0q0.966796875,0,2.5341796875,0.1025390625t3.369140625,0.3076171875t3.5888671875,0.6298828125t3.2666015625,1.0546875t2.40234375,1.552734375t0.9228515625,2.1826171875q0,1.787109375-1.0400390625,3.3544921875t-2.607421875,2.8271484375t-3.310546875,2.2412109375t-3.1201171875,1.7724609375q5.44921875,1.201171875,8.525390625,4.98046875t3.076171875,9.43359375q0,2.98828125-1.142578125,5.9033203125t-3.1201171875,5.2587890625t-4.6875,3.779296875t-5.8154296875,1.435546875q-0.41015625,0-0.9228515625-0.087890625t-0.9375-0.2783203125t-0.732421875-0.5419921875t-0.3076171875-0.908203125q0-2.578125,2.783203125-2.578125q0.46875,0,1.0986328125,0.1318359375t0.9814453125,0.5419921875q1.611328125-0.673828125,2.9443359375-2.138671875t2.255859375-3.2666015625t1.435546875-3.779296875t0.5126953125-3.5888671875q0-1.93359375-0.5712890625-3.9404296875t-1.6552734375-3.720703125t-2.666015625-2.8857421875t-3.6328125-1.46484375q-0.52734375-0.05859375-1.1572265625-0.087890625l-1.259765625-0.05859375t-1.23046875-0.17578125t-1.0400390625-0.46875q0.234375,4.86328125,0.6005859375,9.697265625t0.9814453125,9.697265625q0.234375,0.234375,0.322265625,0.6884765625t0.146484375,0.966796875t0.05859375,0.9814453125l0,0.791015625q0,0.52734375-0.3515625,0.8642578125t-0.8349609375,0.5419921875t-1.025390625,0.263671875t-0.9521484375,0.05859375q-1.318359375,0-2.021484375-0.3515625t-0.99609375-1.025390625t-0.380859375-1.5380859375t-0.146484375-1.8896484375q-0.791015625-8.173828125-1.142578125-16.171875t-0.3515625-16.171875q0-0.966796875-0.0732421875-1.8603515625z M22.265625,37.40234375q0,3.603515625,0.234375,7.2216796875t0.41015625,7.2216796875q1.318359375-0.791015625,3.45703125-1.8603515625t4.1455078125-2.3583984375t3.4423828125-2.841796875t1.435546875-3.369140625q0-1.435546875-1.69921875-2.1826171875t-3.955078125-1.11328125t-4.4091796875-0.4541015625t-3.0615234375-0.263671875z M47.86142578125,70.2734375q0-2.05078125,0.4541015625-4.833984375t1.5380859375-5.2734375t2.8564453125-4.2333984375t4.4677734375-1.7431640625q2.51953125,0,3.779296875,1.4501953125t1.259765625,3.9111328125q0,1.611328125-0.6005859375,3.5302734375t-1.7138671875,3.6328125t-2.63671875,2.8564453125t-3.3984375,1.142578125l-0.76171875-0.05859375q0,0.791015625,0.234375,2.1240234375t0.6884765625,2.6513671875t1.171875,2.314453125t1.7431640625,0.99609375q1.494140625,0,2.87109375-1.201171875t2.607421875-2.666015625t2.28515625-2.666015625t1.93359375-1.201171875q0.46875,0,0.966796875,0.146484375t0.556640625,0.8203125q0,0.41015625-0.2197265625,0.673828125t-0.3955078125,0.5859375q-0.908203125,1.552734375-1.9775390625,2.958984375t-2.4169921875,2.548828125t-2.9443359375,1.8017578125t-3.5302734375,0.6591796875q-2.51953125,0-4.189453125-0.8935546875t-2.6953125-2.40234375t-1.4794921875-3.486328125t-0.4541015625-4.1455078125z M53.10556640625,68.046875l0.8203125,0.732421875q0.5859375,0.52734375,1.171875,0.234375t1.0546875-1.0693359375t0.8642578125-1.9189453125t0.703125-2.34375t0.4541015625-2.34375t0.146484375-1.904296875l0-0.99609375t-0.087890625-1.0546875t-0.3076171875-0.8349609375t-0.6884765625-0.4248046875q-0.146484375-0.029296875-0.263671875-0.029296875q-0.99609375,0-1.69921875,1.259765625q-0.76171875,1.40625-1.23046875,3.4130859375t-0.673828125,4.1162109375t-0.263671875,3.1640625z M72.3439453125,69.072265625q0-1.9921875,0.5419921875-3.837890625t1.6259765625-3.2958984375t2.7099609375-2.314453125t3.7646484375-0.8642578125q1.318359375,0,2.9150390625,0.3955078125t3.0029296875,1.171875t2.34375,1.9775390625t0.9375,2.75390625q0,0.732421875-0.2490234375,1.11328125t-1.0107421875,0.380859375l-0.322265625-0.05859375q0.849609375,2.28515625,1.46484375,4.6875t1.201171875,4.8046875q0.234375,0.46875,0.3515625,0.8349609375t0.1171875,0.7177734375q0,0.46875-0.263671875,0.7763671875t-0.6884765625,0.4541015625t-0.87890625,0.205078125t-0.8056640625,0.05859375q-1.259765625,0-1.8896484375-0.439453125t-0.908203125-1.201171875t-0.3369140625-1.7138671875t-0.234375-1.9189453125q-0.3515625,1.142578125-0.9228515625,2.2265625t-1.34765625,1.9482421875t-1.8310546875,1.376953125t-2.373046875,0.5126953125q-1.93359375,0-3.251953125-1.11328125t-2.1240234375-2.7392578125t-1.171875-3.4716796875t-0.3662109375-3.427734375z M76.5041015625,68.662109375q0,1.083984375,0.146484375,2.28515625t0.4833984375,2.373046875t0.8642578125,2.2119140625t1.318359375,1.8310546875q1.435546875-1.552734375,2.1240234375-3.779296875t1.23046875-4.2919921875t1.23046875-3.544921875t2.1240234375-1.4794921875q0.908203125,0,1.5234375,0.322265625q-0.29296875-0.732421875-0.966796875-1.4208984375t-1.5087890625-1.259765625t-1.728515625-0.9375t-1.6845703125-0.3662109375q-0.234375,0-0.5419921875,0.0732421875t-0.4833984375,0.0146484375q-1.201171875,0.3515625-1.9775390625,1.2158203125t-1.259765625,2.0361328125t-0.6884765625,2.40234375t-0.205078125,2.314453125z M97.73466796875,68.486328125q0-2.109375,0.5419921875-4.2333984375t1.6845703125-3.80859375t2.9150390625-2.7392578125t4.1748046875-1.0546875q1.025390625,0,2.255859375,0.2490234375t2.2705078125,0.791015625t1.7578125,1.40625t0.7177734375,2.1240234375q0,0.791015625-0.41015625,1.0546875t-1.083984375,0.263671875l-0.205078125-0.29296875t-0.5712890625-0.7470703125t-0.7763671875-0.966796875t-0.791015625-0.8642578125q-1.201171875-1.201171875-2.255859375-1.2890625l-0.234375,0q-0.87890625,0-1.640625,0.52734375q-0.849609375,0.64453125-1.5087890625,1.81640625t-1.0986328125,2.490234375t-0.6884765625,2.666015625t-0.2490234375,2.2265625q0,1.201171875,0.2783203125,2.7392578125t0.9375,2.9150390625t1.669921875,2.314453125t2.5927734375,0.9375q1.435546875,0,2.607421875-0.703125t2.2412109375-1.5673828125t2.0947265625-1.552734375t2.109375-0.6884765625q0.46875,0,0.9521484375,0.1171875t0.4833984375,0.615234375l0,0.17578125q-0.52734375,1.376953125-1.787109375,2.431640625t-2.8271484375,1.8310546875t-3.251953125,1.1572265625t-3.0029296875,0.380859375q-2.4609375,0-4.3212890625-0.8056640625t-3.0908203125-2.2119140625t-1.8603515625-3.3837890625t-0.6298828125-4.3212890625z M123.301171875,72.265625l0-2.75390625q0-1.494140625,0.0732421875-4.2333984375t0.1904296875-6.005859375t0.322265625-6.8115234375t0.46875-6.6943359375t0.6298828125-5.6396484375t0.8349609375-3.69140625q0.29296875-0.673828125,0.966796875-0.849609375t1.318359375-0.17578125q1.025390625,0,1.8017578125,0.4541015625t0.7763671875,1.6552734375l-0.52734375,0.5859375q-1.025390625,6.767578125-1.318359375,13.59375t-0.41015625,13.65234375q0.732421875-1.142578125,1.6552734375-2.2412109375t2.05078125-1.9482421875t2.431640625-1.3623046875t2.8564453125-0.5126953125q1.9921875,0,3.2958984375,1.201171875t2.1533203125,3.1201171875t1.259765625,4.2919921875t0.6298828125,4.74609375t0.3076171875,4.4970703125t0.263671875,3.5302734375q-0.556640625,0.76171875-1.640625,0.76171875l-0.087890625,0q-0.46875,0-1.025390625-0.1171875t-0.732421875-0.5859375l0.05859375,0.05859375q-0.41015625-0.908203125-0.556640625-2.6220703125t-0.234375-3.779296875t-0.3076171875-4.2333984375t-0.6591796875-3.92578125t-1.2890625-2.900390625t-2.28515625-1.201171875l-0.17578125,0q-1.728515625,0-2.900390625,1.0546875q-1.23046875,1.11328125-1.9921875,2.9296875t-1.171875,4.04296875t-0.6298828125,4.2919921875t-0.3369140625,3.75t-0.29296875,2.4755859375q-0.17578125,0.673828125-1.0400390625,0.8935546875t-1.4794921875,0.2197265625q-1.435546875,0-2.34375-0.8203125q-0.673828125-1.611328125-0.791015625-4.013671875t-0.1171875-4.6875z M162.7447265625,39.86328125q0-1.376953125,0.3369140625-2.0068359375t0.966796875-0.87890625t1.5234375-0.1904296875t2.0947265625,0.05859375q3.046875,0,6.15234375,0.9375t5.595703125,2.7392578125t4.013671875,4.4384765625t1.5234375,6.064453125q0,2.28515625-0.6591796875,4.3212890625t-1.8603515625,3.80859375t-2.8125,3.2373046875t-3.544921875,2.548828125q0.791015625,0.791015625,2.05078125,2.7978515625t2.490234375,4.27734375t2.1826171875,4.4091796875t1.1279296875,3.22265625l-0.3515625,0.52734375q-0.791015625,0.46875-1.904296875,0.498046875q-0.52734375,0-1.376953125-0.1318359375t-1.083984375-0.7763671875q-1.201171875-3.369140625-2.6220703125-6.943359375t-3.5009765625-6.4453125l0-0.05859375q-0.732421875,0.29296875-1.4501953125,0.5712890625t-1.4501953125,0.5126953125q0.234375,3.251953125,0.4833984375,6.4013671875t0.2490234375,6.3720703125q0,0.41015625-0.3955078125,0.6591796875t-0.8935546875,0.3955078125t-1.0107421875,0.205078125t-0.8349609375,0.05859375q-0.29296875,0-0.8349609375-0.05859375t-1.0400390625-0.205078125t-0.8642578125-0.4248046875t-0.3662109375-0.7470703125q0-3.251953125-0.146484375-6.4892578125t-0.322265625-6.4599609375q-0.908203125-0.5859375-0.908203125-1.5234375q0-0.732421875,0.703125-0.99609375q-0.3515625-6.181640625-0.8056640625-12.333984375t-0.4541015625-12.392578125z M168.0474609375,38.955078125q0.41015625,6.357421875,0.9228515625,12.568359375t0.9814453125,12.568359375q2.05078125-0.5859375,3.8232421875-2.0361328125t3.0615234375-3.2666015625t2.0068359375-3.955078125t0.7177734375-4.248046875q0-2.34375-0.9375-4.4970703125t-2.490234375-3.7646484375q-1.58203125-1.611328125-3.6328125-2.51953125q-1.81640625-0.791015625-3.80859375-0.791015625l-0.52734375,0z M190.94794921875,70.2734375q0-2.05078125,0.4541015625-4.833984375t1.5380859375-5.2734375t2.8564453125-4.2333984375t4.4677734375-1.7431640625q2.51953125,0,3.779296875,1.4501953125t1.259765625,3.9111328125q0,1.611328125-0.6005859375,3.5302734375t-1.7138671875,3.6328125t-2.63671875,2.8564453125t-3.3984375,1.142578125l-0.76171875-0.05859375q0,0.791015625,0.234375,2.1240234375t0.6884765625,2.6513671875t1.171875,2.314453125t1.7431640625,0.99609375q1.494140625,0,2.87109375-1.201171875t2.607421875-2.666015625t2.28515625-2.666015625t1.93359375-1.201171875q0.46875,0,0.966796875,0.146484375t0.556640625,0.8203125q0,0.41015625-0.2197265625,0.673828125t-0.3955078125,0.5859375q-0.908203125,1.552734375-1.9775390625,2.958984375t-2.4169921875,2.548828125t-2.9443359375,1.8017578125t-3.5302734375,0.6591796875q-2.51953125,0-4.189453125-0.8935546875t-2.6953125-2.40234375t-1.4794921875-3.486328125t-0.4541015625-4.1455078125z M196.19208984375,68.046875l0.8203125,0.732421875q0.5859375,0.52734375,1.171875,0.234375t1.0546875-1.0693359375t0.8642578125-1.9189453125t0.703125-2.34375t0.4541015625-2.34375t0.146484375-1.904296875l0-0.99609375t-0.087890625-1.0546875t-0.3076171875-0.8349609375t-0.6884765625-0.4248046875q-0.146484375-0.029296875-0.263671875-0.029296875q-0.99609375,0-1.69921875,1.259765625q-0.76171875,1.40625-1.23046875,3.4130859375t-0.673828125,4.1162109375t-0.263671875,3.1640625z M215.43046875,61.513671875q0-1.201171875,0.703125-2.0654296875t1.7138671875-1.40625t2.2119140625-0.8056640625t2.2265625-0.263671875q0.791015625,0,2.109375,0.234375t2.578125,0.703125t2.1826171875,1.23046875t0.9228515625,1.787109375q0,0.46875-0.3515625,0.8349609375t-0.732421875,0.3662109375q-0.791015625,0-1.435546875-0.5126953125t-1.3330078125-1.083984375t-1.5087890625-1.083984375t-1.845703125-0.5126953125t-1.8603515625,0.6591796875t-0.8349609375,1.7431640625q0,1.787109375,1.259765625,3.5009765625t2.7685546875,3.603515625t2.7685546875,3.9697265625t1.259765625,4.599609375q0,1.083984375-0.4541015625,1.8310546875t-1.201171875,1.2158203125t-1.6845703125,0.7177734375t-1.81640625,0.2490234375q-0.966796875,0-2.255859375-0.4541015625t-2.431640625-1.201171875t-1.9189453125-1.7431640625t-0.7763671875-2.080078125q0-0.52734375,0.7470703125-0.673828125t1.0986328125-0.146484375q0.17578125,0,0.5419921875,0.1171875t0.7177734375,0.263671875t0.6298828125,0.322265625t0.2197265625,0.380859375q0.29296875,0.3515625,0.8935546875,1.0400390625t1.201171875,1.11328125t1.0546875,0.3076171875t0.4541015625-1.318359375q0-2.28515625-1.23046875-4.2041015625t-2.6806640625-3.75t-2.6806640625-3.6328125t-1.23046875-3.8525390625z M235.48916015625,69.62890625q0-1.669921875,0.4248046875-3.4423828125t1.34765625-3.193359375t2.3291015625-2.314453125t3.3984375-0.8935546875q1.494140625,0,3.1494140625,0.5126953125t3.0322265625,1.46484375t2.2412109375,2.3291015625t0.8642578125,3.076171875q0,2.05078125-0.7470703125,3.896484375t-2.0947265625,3.2958984375t-3.1494140625,2.28515625t-3.9111328125,0.8349609375q-1.728515625,0-3.017578125-0.6298828125t-2.1533203125-1.6845703125t-1.2890625-2.490234375t-0.4248046875-3.046875z M239.79580078125,69.5703125q0,0.52734375,0.1611328125,1.552734375t0.4833984375,2.0068359375t0.8349609375,1.69921875t1.2451171875,0.6591796875q1.552734375-0.17578125,2.5634765625-1.0107421875t1.640625-2.0361328125t0.87890625-2.607421875t0.2490234375-2.666015625q0-1.611328125-0.6298828125-2.6953125t-2.0654296875-1.7578125q0,0.05859375,0.05859375,0.05859375t0.05859375-0.05859375l-0.732421875-0.17578125q-0.29296875-0.1171875-0.7177734375-0.263671875t-0.8349609375-0.64453125q-1.142578125,0.41015625-1.7724609375,1.0546875t-0.9521484375,1.5673828125t-0.3955078125,2.2119140625t-0.0732421875,3.10546875z M257.6865234375,60.869140625q0-1.201171875,0.4248046875-2.021484375t1.8017578125-0.8203125q0.52734375,0,1.318359375,0.1611328125t0.908203125,0.8056640625q0.29296875,1.728515625,0.322265625,3.75t0.205078125,3.80859375q0.673828125-1.318359375,1.728515625-2.841796875t2.40234375-2.8125t2.9296875-2.138671875t3.22265625-0.849609375q0.1171875,0,0.439453125,0.087890625t0.6005859375,0.2490234375t0.3369140625,0.3662109375t-0.322265625,0.380859375q-0.1171875,0.3515625-0.498046875,0.4248046875t-0.673828125,0.0732421875q-0.17578125,0-0.556640625-0.146484375q-2.16796875,1.142578125-3.69140625,3.10546875t-2.490234375,4.3505859375t-1.40625,5.0390625t-0.439453125,5.1708984375q0,1.259765625-0.5712890625,1.5234375t-1.8310546875,0.263671875q-0.673828125,0-1.4208984375-0.146484375t-1.0400390625-0.9375q-0.52734375-1.669921875-0.8642578125-3.837890625t-0.5126953125-4.4677734375t-0.2490234375-4.5263671875t-0.0732421875-4.013671875z M277.30576171875,50.46875q0-0.41015625,0.87890625-0.703125t1.9921875-0.4833984375t2.1533203125-0.2783203125t1.4208984375-0.146484375q0-0.791015625,0.05859375-1.5966796875t0.322265625-1.435546875t0.8349609375-1.0107421875t1.5966796875-0.380859375q0.849609375,0,1.2890625,0.205078125t0.9375,0.849609375q0.1171875,0.3515625,0.1171875,0.673828125l0,0.9814453125t-0.05859375,1.0107421875q1.083984375-0.1171875,2.1533203125-0.2783203125t2.1533203125-0.1611328125q0.791015625,0,1.083984375,0.029296875t0.5859375,0.703125q0.234375,0.673828125-0.5712890625,1.025390625t-1.93359375,0.52734375t-2.2412109375,0.263671875t-1.34765625,0.087890625q-0.3515625,5.0390625-0.7177734375,9.990234375t-0.3662109375,10.048828125q0,2.28515625,0.146484375,4.716796875t0.8203125,4.599609375q0.17578125,0.673828125,0.5859375,1.259765625t0.41015625,1.259765625q0,0.41015625-0.322265625,0.64453125t-0.7763671875,0.3955078125t-0.908203125,0.1904296875t-0.7470703125,0.029296875q-1.845703125,0-2.8125-1.376953125t-1.3916015625-3.2958984375t-0.4541015625-3.9404296875t-0.029296875-3.28125q0-2.578125,0.1025390625-5.2734375t0.2490234375-5.33203125t0.41015625-5.15625t0.615234375-4.6875q-1.025390625,0.1171875-2.0068359375,0.263671875t-2.0068359375,0.146484375q-0.234375,0-0.6298828125-0.029296875t-0.7470703125-0.146484375t-0.6005859375-0.322265625t-0.2490234375-0.5859375z"/><path fill="#" d=""/></svg>
