<svg aria-hidden="true" style="position: absolute; width: 0; height: 0; overflow: hidden;" version="1.1" xmlns="http://www.w3.org/2000/svg" xmlns:xlink="http://www.w3.org/1999/xlink">
<defs>
<symbol id="icon-chevron-small-down" viewBox="0 0 20 20">
<path d="M13.418 7.859c0.271-0.268 0.709-0.268 0.978 0s0.272 0.701 0 0.969l-3.908 3.83c-0.27 0.268-0.707 0.268-0.979 0l-3.908-3.83c-0.27-0.267-0.27-0.701 0-0.969s0.709-0.268 0.978 0l3.421 3.141 3.418-3.141z"></path>
</symbol>
<symbol id="icon-chevron-small-left" viewBox="0 0 20 20">
<path d="M12.141 13.418c0.268 0.271 0.268 0.709 0 0.978s-0.701 0.272-0.969 0l-3.83-3.908c-0.268-0.27-0.268-0.707 0-0.979l3.83-3.908c0.267-0.27 0.701-0.27 0.969 0s0.268 0.709 0 0.978l-3.141 3.421 3.141 3.418z"></path>
</symbol>
<symbol id="icon-chevron-small-right" viewBox="0 0 20 20">
<path d="M11 10l-3.141-3.42c-0.268-0.27-0.268-0.707 0-0.978 0.268-0.27 0.701-0.27 0.969 0l3.83 3.908c0.268 0.271 0.268 0.709 0 0.979l-3.83 3.908c-0.267 0.272-0.701 0.27-0.969 0s-0.268-0.707 0-0.978l3.141-3.419z"></path>
</symbol>
<symbol id="icon-chevron-small-up" viewBox="0 0 20 20">
<path d="M6.582 12.141c-0.271 0.268-0.709 0.268-0.978 0s-0.272-0.701 0-0.969l3.908-3.83c0.27-0.268 0.707-0.268 0.979 0l3.908 3.83c0.27 0.267 0.27 0.701 0 0.969s-0.709 0.268-0.979 0l-3.42-3.141-3.418 3.141z"></path>
</symbol>
<symbol id="icon-chevron-thin-down" viewBox="0 0 20 20">
<path d="M17.418 6.109c0.272-0.268 0.709-0.268 0.979 0s0.271 0.701 0 0.969l-7.908 7.83c-0.27 0.268-0.707 0.268-0.979 0l-7.908-7.83c-0.27-0.268-0.27-0.701 0-0.969s0.709-0.268 0.979 0l7.419 7.141 7.418-7.141z"></path>
</symbol>
<symbol id="icon-chevron-thin-left" viewBox="0 0 20 20">
<path d="M13.891 17.418c0.268 0.272 0.268 0.709 0 0.979s-0.701 0.271-0.969 0l-7.83-7.908c-0.268-0.27-0.268-0.707 0-0.979l7.83-7.908c0.268-0.27 0.701-0.27 0.969 0s0.268 0.709 0 0.979l-7.141 7.419 7.141 7.418z"></path>
</symbol>
<symbol id="icon-chevron-thin-right" viewBox="0 0 20 20">
<path d="M13.25 10l-7.141-7.42c-0.268-0.27-0.268-0.707 0-0.979 0.268-0.27 0.701-0.27 0.969 0l7.83 7.908c0.268 0.271 0.268 0.709 0 0.979l-7.83 7.908c-0.268 0.271-0.701 0.27-0.969 0s-0.268-0.707 0-0.979l7.141-7.417z"></path>
</symbol>
<symbol id="icon-chevron-thin-up" viewBox="0 0 20 20">
<path d="M2.582 13.891c-0.272 0.268-0.709 0.268-0.979 0s-0.271-0.701 0-0.969l7.908-7.83c0.27-0.268 0.707-0.268 0.979 0l7.908 7.83c0.27 0.268 0.27 0.701 0 0.969s-0.709 0.268-0.978 0l-7.42-7.141-7.418 7.141z"></path>
</symbol>
<symbol id="icon-globe" viewBox="0 0 20 20">
<path d="M10 0.4c-5.295 0-9.601 4.307-9.601 9.6s4.306 9.6 9.601 9.6c5.293 0 9.6-4.307 9.6-9.6s-4.307-9.6-9.6-9.6zM18.188 10c0 1.873-0.636 3.6-1.696 4.98-0.3-0.234-0.619-0.867-0.319-1.523 0.303-0.66 0.382-2.188 0.312-2.783-0.066-0.594-0.375-2.025-1.214-2.039-0.838-0.012-1.413-0.289-1.911-1.283-1.033-2.068 1.939-2.465 0.906-3.609-0.289-0.322-1.783 1.322-2.002-0.869-0.014-0.157 0.135-0.392 0.336-0.636 3.244 1.090 5.588 4.157 5.588 7.762zM8.875 1.893c-0.196 0.382-0.713 0.537-1.027 0.824-0.684 0.619-0.978 0.533-1.346 1.127-0.371 0.594-1.567 1.449-1.567 1.879s0.604 0.936 0.906 0.838c0.302-0.1 1.099-0.094 1.567 0.070 0.469 0.166 3.914 0.332 2.816 3.244-0.348 0.926-1.873 0.77-2.279 2.303-0.061 0.225-0.272 1.186-0.285 1.5-0.025 0.486 0.344 2.318-0.125 2.318-0.471 0-1.738-1.639-1.738-1.936s-0.328-1.338-0.328-2.23c0-0.891-1.518-0.877-1.518-2.062 0-1.068 0.823-1.6 0.638-2.113-0.181-0.51-1.627-0.527-2.23-0.59 1.053-2.731 3.53-4.758 6.516-5.172zM7.424 17.77c0.492-0.26 0.542-0.596 0.988-0.613 0.51-0.023 0.925-0.199 1.5-0.326 0.51-0.111 1.423-0.629 2.226-0.695 0.678-0.055 2.015 0.035 2.375 0.689-1.295 0.861-2.848 1.363-4.514 1.363-0.899 0-1.765-0.149-2.575-0.418z"></path>
</symbol>
<symbol id="icon-language" viewBox="0 0 20 20">
<path d="M19.753 10.909c-0.624-1.707-2.366-2.726-4.661-2.726-0.090 0-0.176 0.002-0.262 0.006l-0.016-2.063c0 0 3.41-0.588 3.525-0.607s0.133-0.119 0.109-0.231c-0.023-0.111-0.167-0.883-0.188-0.976-0.027-0.131-0.102-0.127-0.207-0.109s-3.25 0.461-3.25 0.461-0.012-1.953-0.013-2.078c-0.001-0.125-0.069-0.158-0.194-0.156s-0.92 0.014-1.025 0.016c-0.105 0.002-0.164 0.049-0.162 0.148s0.033 2.307 0.033 2.307-3.061 0.527-3.144 0.543c-0.084 0.014-0.17 0.053-0.151 0.143s0.19 1.094 0.208 1.172c0.018 0.080 0.072 0.129 0.188 0.107 0.115-0.019 2.924-0.504 2.924-0.504l0.035 2.018c-1.077 0.281-1.801 0.824-2.256 1.303-0.768 0.807-1.207 1.887-1.207 2.963 0 1.586 0.971 2.529 2.328 2.695 3.162 0.387 5.119-3.060 5.769-4.715 1.097 1.506 0.256 4.354-2.094 5.98-0.043 0.029-0.098 0.129-0.033 0.207s0.541 0.662 0.619 0.756c0.080 0.096 0.206 0.059 0.256 0.023 2.51-1.73 3.661-4.515 2.869-6.683zM12.367 14.097c-0.966-0.121-0.944-0.914-0.944-1.453 0-0.773 0.327-1.58 0.876-2.156 0.335-0.354 0.75-0.621 1.229-0.799l0.082 4.277c-0.385 0.131-0.799 0.185-1.243 0.131zM14.794 13.544l0.046-4.109c0.084-0.004 0.166-0.010 0.252-0.010 0.773 0 1.494 0.145 1.885 0.361s-1.023 2.713-2.183 3.758zM5.844 5.876c-0.030-0.094-0.103-0.145-0.196-0.145h-1.95c-0.093 0-0.165 0.051-0.194 0.144-0.412 1.299-3.48 10.99-3.496 11.041s-0.011 0.076 0.062 0.076h1.733c0.075 0 0.099-0.023 0.114-0.072 0.015-0.051 1.008-3.318 1.008-3.318h3.496c0 0 0.992 3.268 1.008 3.318s0.039 0.072 0.113 0.072h1.734c0.072 0 0.078-0.025 0.062-0.076-0.014-0.050-3.083-9.741-3.494-11.040zM3.226 12.194l1.447-5.25 1.447 5.25h-2.894z"></path>
</symbol>
<symbol id="icon-map" viewBox="0 0 20 20">
<path d="M19.447 3.718l-6-3c-0.281-0.141-0.613-0.141-0.895 0l-5.63 2.815-5.606-1.869c-0.306-0.102-0.64-0.051-0.901 0.138s-0.415 0.49-0.415 0.811v13.001c0 0.379 0.214 0.725 0.553 0.894l6 3c0.141 0.070 0.294 0.106 0.447 0.106s0.307-0.035 0.447-0.106l5.63-2.814 5.606 1.869c0.305 0.1 0.64 0.049 0.901-0.139s0.415-0.49 0.415-0.81v-13.002c0.001-0.379-0.213-0.725-0.552-0.894zM8 5.231l4-2v11.763l-4 2v-11.763zM2 4l4 1.333v11.661l-4-2v-10.994zM18 16.227l-4-1.334v-11.662l4 2v10.996z"></path>
</symbol>
<symbol id="icon-price-ribbon" viewBox="0 0 20 20">
<path d="M12.825 10.653c0.118-0.258 0.445-0.497 0.727-0.529s0.539-0.29 0.571-0.572c0.034-0.28 0.272-0.608 0.529-0.727s0.423-0.443 0.369-0.72c-0.058-0.278 0.068-0.663 0.276-0.854 0.209-0.194 0.266-0.553 0.127-0.801-0.139-0.246-0.139-0.651 0-0.897 0.139-0.249 0.082-0.608-0.127-0.801s-0.333-0.577-0.276-0.854c0.054-0.278-0.111-0.603-0.369-0.722-0.256-0.119-0.495-0.445-0.529-0.727-0.033-0.28-0.29-0.538-0.571-0.572s-0.609-0.272-0.727-0.528c-0.12-0.258-0.444-0.423-0.722-0.366-0.278 0.055-0.662-0.070-0.854-0.278-0.193-0.21-0.553-0.266-0.8-0.127s-0.652 0.139-0.898 0c-0.247-0.141-0.606-0.085-0.801 0.125-0.191 0.208-0.575 0.333-0.854 0.278-0.277-0.056-0.602 0.109-0.72 0.367-0.119 0.256-0.446 0.495-0.728 0.527-0.282 0.035-0.539 0.292-0.572 0.573-0.034 0.281-0.271 0.608-0.529 0.726-0.256 0.119-0.422 0.444-0.366 0.722s-0.070 0.662-0.278 0.854-0.266 0.552-0.127 0.801c0.139 0.246 0.139 0.651 0 0.897-0.139 0.248-0.082 0.607 0.127 0.802 0.209 0.19 0.333 0.575 0.278 0.854-0.056 0.277 0.11 0.602 0.366 0.72 0.258 0.119 0.495 0.447 0.528 0.727 0.034 0.282 0.29 0.54 0.572 0.572s0.609 0.272 0.728 0.529c0.118 0.256 0.443 0.421 0.72 0.366 0.278-0.055 0.663 0.069 0.854 0.278 0.194 0.208 0.553 0.266 0.801 0.127 0.246-0.139 0.651-0.139 0.898 0s0.607 0.081 0.8-0.127c0.193-0.21 0.576-0.333 0.854-0.278s0.604-0.109 0.723-0.365zM10 9.399c-1.878 0-3.4-1.523-3.4-3.399 0-1.878 1.522-3.401 3.4-3.401s3.4 1.523 3.4 3.401c0 1.876-1.523 3.399-3.4 3.399zM5.975 11.409l-1.243 7.049 3.128-0.464 2.781 1.506 1.238-7.021c-0.597 0.173-1.227 0.271-1.88 0.271-1.509 0-2.899-0.502-4.024-1.341zM13.961 11.457c-0.311 0.226-0.642 0.426-0.99 0.597l-0.748 4.236 3.369-1.828-1.631-3.005z"></path>
</symbol>
</defs>
</svg>
